<svg width="200" height="50" viewBox="0 0 200 50" fill="none" xmlns="http://www.w3.org/2000/svg">
<g clip-path="url(#clip0_333_1016)">
<mask id="mask0_333_1016" style="mask-type:luminance" maskUnits="userSpaceOnUse" x="0" y="10" width="200" height="30">
<path d="M200 10.4453H0V39.5544H200V10.4453Z" fill="white"/>
</mask>
<g mask="url(#mask0_333_1016)">
<path d="M50.775 38.5431C49.2682 37.9529 47.9548 36.9561 46.981 35.6636C46.012 34.3279 45.4877 32.7213 45.4824 31.0711H52.5657C52.6069 31.9491 52.9829 32.7779 53.6163 33.3871C54.2667 33.9382 55.1014 34.223 55.953 34.1843C56.7868 34.2314 57.6116 33.9911 58.2896 33.5035C58.5715 33.2791 58.7961 32.991 58.945 32.663C59.0939 32.3349 59.1628 31.9761 59.1461 31.6162C59.1553 31.3053 59.0995 30.996 58.9823 30.7079C58.8651 30.4198 58.689 30.1594 58.4653 29.9432C57.9785 29.4809 57.4112 29.1115 56.7915 28.8531C55.8696 28.4775 54.9279 28.1529 53.9704 27.8807C52.4915 27.4448 51.0476 26.8984 49.6507 26.2459C48.512 25.6827 47.5244 24.8555 46.7703 23.8333C45.9196 22.6166 45.4956 21.1525 45.5646 19.6695C45.5646 17.1273 46.4854 15.1361 48.3269 13.6957C50.1683 12.2554 52.5685 11.5353 55.5274 11.5356C58.536 11.5356 60.9617 12.2557 62.8044 13.6957C64.647 15.1358 65.6331 17.1401 65.7625 19.7086H58.5579C58.5511 19.3127 58.4611 18.9226 58.2935 18.5639C58.126 18.2051 57.8847 17.8856 57.5855 17.6263C56.9376 17.1031 56.1214 16.8334 55.2893 16.8678C54.5835 16.834 53.8902 17.0628 53.3431 17.5099C53.09 17.7434 52.8923 18.0305 52.7644 18.3502C52.6364 18.6698 52.5814 19.014 52.6034 19.3577C52.5991 19.7832 52.7133 20.2016 52.9333 20.5659C53.1533 20.9302 53.4704 21.226 53.8491 21.4202C55.0877 22.0851 56.3918 22.6199 57.7405 23.0164C59.2092 23.4945 60.6458 24.0662 62.0414 24.728C63.164 25.2898 64.1424 26.1022 64.9011 27.1024C65.7451 28.2635 66.1712 29.6761 66.1099 31.1102C66.1262 32.6084 65.7145 34.08 64.9231 35.3522C64.0826 36.6673 62.889 37.7194 61.4788 38.3881C59.814 39.1752 57.988 39.5616 56.1471 39.5164C54.3104 39.5466 52.4856 39.2159 50.7763 38.5431" fill="#104226"/>
<path d="M73.7292 38.1944C72.0403 37.3081 70.6396 35.9581 69.6917 34.303C68.6818 32.498 68.1742 30.4553 68.2218 28.3876C68.1785 26.3238 68.6932 24.2867 69.7114 22.4911C70.6701 20.826 72.0847 19.4696 73.7885 18.5817C75.5912 17.6859 77.5769 17.2197 79.59 17.2197C81.603 17.2197 83.5887 17.6859 85.3914 18.5817C87.0951 19.4699 88.5096 20.8262 89.4685 22.4911C90.4861 24.2869 91.0004 26.324 90.9572 28.3876C91.0001 30.4535 90.4783 32.4919 89.4483 34.2832C88.475 35.9505 87.0473 37.3065 85.3321 38.1926C83.5322 39.1153 81.5336 39.5828 79.5111 39.5542C77.501 39.5866 75.5142 39.1193 73.7292 38.1944ZM82.7843 32.3977C83.6863 31.4642 84.1371 30.1283 84.1368 28.3899C84.1365 26.6514 83.6987 25.3152 82.8233 24.3811C82.4066 23.9402 81.9045 23.5886 81.3477 23.3477C80.7908 23.1068 80.1908 22.9816 79.5841 22.9798C78.9774 22.9779 78.3766 23.0995 77.8183 23.337C77.26 23.5744 76.7558 23.923 76.3364 24.3613C75.4736 25.2831 75.0424 26.626 75.0427 28.3899C75.0427 30.1274 75.4672 31.4633 76.3161 32.3977C76.7143 32.8501 77.2066 33.2099 77.7585 33.452C78.3104 33.6941 78.9086 33.8126 79.5111 33.7993C80.1244 33.8078 80.7327 33.6874 81.2965 33.446C81.8603 33.2046 82.3672 32.8474 82.7843 32.3977Z" fill="#104226"/>
<path d="M100.115 10.4453H93.46V39.2435H100.115V10.4453Z" fill="#104226"/>
<path d="M140.977 11.9237V39.2448H134.13V22.8593L127.844 39.2435H122.317L115.993 22.8207V39.2435H109.147V11.9224H117.235L125.12 30.8377L132.928 11.9242L140.977 11.9237Z" fill="#104226"/>
<path d="M154.134 15.6939C154.391 15.9964 154.529 16.3818 154.524 16.7786C154.528 17.0991 154.44 17.414 154.271 17.6863C154.092 17.9653 153.837 18.1864 153.535 18.3231C153.17 18.4874 152.774 18.5671 152.374 18.5563H150.073V11.9102H152.308C152.86 11.8718 153.406 12.0375 153.843 12.3758C154.015 12.5253 154.152 12.7112 154.243 12.92C154.335 13.1289 154.378 13.3554 154.371 13.5832C154.387 13.9472 154.268 14.3044 154.038 14.5866C153.813 14.8465 153.516 15.0341 153.184 15.1259C153.559 15.1964 153.897 15.3986 154.135 15.6961M150.741 14.8504H152.29C152.665 14.8748 153.035 14.7615 153.332 14.5318C153.455 14.4219 153.551 14.2859 153.615 14.1337C153.678 13.9815 153.707 13.8171 153.698 13.6524C153.706 13.4899 153.678 13.3277 153.614 13.1779C153.551 13.0281 153.454 12.8946 153.332 12.7874C153.024 12.5578 152.645 12.4462 152.262 12.4728H150.741V14.8504ZM153.456 17.6558C153.59 17.5397 153.697 17.3943 153.767 17.2307C153.837 17.0672 153.869 16.8898 153.86 16.7121C153.867 16.531 153.833 16.3507 153.759 16.185C153.686 16.0193 153.576 15.8725 153.437 15.7559C153.113 15.5046 152.71 15.3782 152.3 15.3995H150.741V17.995H152.329C152.734 18.0195 153.133 17.8984 153.456 17.6535" fill="#104226"/>
<path d="M160.247 13.3647V18.5562H159.581V17.644C159.434 17.9616 159.187 18.2222 158.878 18.3855C158.55 18.5593 158.183 18.6475 157.812 18.642C157.533 18.6529 157.255 18.6076 156.993 18.5089C156.732 18.4102 156.493 18.26 156.291 18.0673C156.084 17.8443 155.925 17.5811 155.824 17.2942C155.722 17.0072 155.681 16.7025 155.702 16.3988V13.3647H156.358V16.322C156.325 16.7915 156.477 17.2553 156.78 17.6148C156.931 17.7666 157.111 17.8849 157.31 17.9619C157.509 18.039 157.723 18.0731 157.936 18.0619C158.158 18.0722 158.379 18.0352 158.586 17.9533C158.792 17.8714 158.979 17.7465 159.134 17.5869C159.458 17.1959 159.618 16.6949 159.581 16.1885V13.3647H160.247Z" fill="#104226"/>
<path d="M161.759 12.2432C161.712 12.1973 161.676 12.1424 161.651 12.0818C161.627 12.0212 161.615 11.9563 161.616 11.8909C161.615 11.8263 161.626 11.762 161.651 11.7022C161.676 11.6424 161.712 11.5884 161.759 11.5436C161.851 11.4551 161.974 11.4058 162.101 11.4058C162.229 11.4058 162.352 11.4551 162.444 11.5436C162.49 11.5884 162.527 11.6424 162.552 11.7022C162.576 11.762 162.588 11.8263 162.586 11.8909C162.588 11.9563 162.576 12.0212 162.551 12.0818C162.527 12.1424 162.49 12.1973 162.444 12.2432C162.399 12.2883 162.345 12.3241 162.287 12.3486C162.228 12.373 162.165 12.3855 162.101 12.3855C162.038 12.3855 161.975 12.373 161.916 12.3486C161.857 12.3241 161.804 12.2883 161.759 12.2432ZM162.433 18.5563H161.767V13.3648H162.433V18.5563Z" fill="#104226"/>
<path d="M164.611 11.52H163.945V18.5561H164.611V11.52Z" fill="#104226"/>
<path d="M166.143 14.5478C166.345 14.1594 166.653 13.8362 167.031 13.6158C167.42 13.3939 167.862 13.2807 168.31 13.2878C168.745 13.282 169.173 13.3973 169.546 13.6208C169.896 13.8227 170.177 14.1242 170.355 14.4867V11.52H171.02V18.5561H170.355V17.3959C170.19 17.764 169.918 18.0739 169.575 18.2851C169.193 18.5224 168.75 18.6431 168.3 18.6325C167.852 18.6396 167.41 18.5245 167.022 18.2995C166.643 18.076 166.336 17.7485 166.138 17.3559C165.918 16.9199 165.809 16.4369 165.819 15.9489C165.808 15.4617 165.919 14.9795 166.142 14.546M170.097 14.8556C169.937 14.5507 169.695 14.2969 169.398 14.1232C169.102 13.9518 168.765 13.8632 168.424 13.8666C168.078 13.861 167.737 13.9461 167.435 14.1133C167.141 14.2811 166.901 14.5309 166.746 14.8323C166.57 15.178 166.484 15.5621 166.494 15.9498C166.485 16.3371 166.572 16.7205 166.746 17.0665C166.9 17.3722 167.139 17.6267 167.435 17.7989C167.736 17.9693 168.078 18.0561 168.424 18.0506C168.765 18.054 169.102 17.9653 169.398 17.794C169.695 17.6205 169.937 17.3666 170.097 17.0615C170.274 16.7215 170.362 16.3425 170.354 15.9593C170.362 15.5757 170.274 15.1959 170.097 14.8556Z" fill="#104226"/>
<path d="M172.531 12.2432C172.485 12.1973 172.448 12.1424 172.424 12.0818C172.399 12.0212 172.387 11.9563 172.389 11.8909C172.387 11.8263 172.399 11.762 172.423 11.7022C172.448 11.6424 172.485 11.5884 172.531 11.5436C172.623 11.4551 172.746 11.4058 172.874 11.4058C173.001 11.4058 173.124 11.4551 173.216 11.5436C173.263 11.5884 173.299 11.6424 173.324 11.7022C173.349 11.762 173.36 11.8263 173.359 11.8909C173.36 11.9563 173.348 12.0212 173.324 12.0818C173.299 12.1424 173.263 12.1973 173.216 12.2432C173.171 12.2883 173.118 12.324 173.059 12.3484C173 12.3728 172.937 12.3854 172.874 12.3854C172.81 12.3854 172.747 12.3728 172.688 12.3484C172.63 12.324 172.576 12.2883 172.531 12.2432ZM173.205 18.5563H172.539V13.3648H173.205V18.5563Z" fill="#104226"/>
<path d="M178.674 13.8448C178.881 14.0681 179.04 14.3315 179.141 14.6186C179.242 14.9057 179.284 15.2105 179.263 15.5142V18.5568H178.607V15.591C178.639 15.1216 178.487 14.658 178.184 14.2982C178.034 14.1466 177.853 14.0284 177.654 13.9514C177.455 13.8743 177.242 13.8401 177.029 13.8511C176.807 13.8407 176.585 13.8777 176.379 13.9596C176.172 14.0415 175.985 14.1664 175.831 14.3261C175.506 14.7169 175.345 15.2178 175.381 15.7245V18.5577H174.716V13.364H175.381V14.2483C175.539 13.9385 175.788 13.6846 176.094 13.5208C176.419 13.3494 176.782 13.2628 177.15 13.2692C177.429 13.2582 177.707 13.3035 177.969 13.4022C178.23 13.5009 178.469 13.6511 178.672 13.8439" fill="#104226"/>
<path d="M184.189 13.6324C184.529 13.8372 184.8 14.1383 184.969 14.4974V13.365H185.634V18.6899C185.642 19.1309 185.536 19.5666 185.325 19.954C185.126 20.3148 184.827 20.6105 184.465 20.8055C184.078 21.0093 183.646 21.1121 183.21 21.1044C182.62 21.1268 182.039 20.9604 181.55 20.6294C181.116 20.3235 180.821 19.859 180.727 19.3366H181.383C181.493 19.6919 181.723 19.9978 182.034 20.2016C182.384 20.4255 182.794 20.5381 183.209 20.5247C183.523 20.5298 183.834 20.4563 184.112 20.3108C184.38 20.167 184.599 19.9467 184.741 19.6781C184.9 19.3731 184.978 19.033 184.97 18.6895V17.407C184.798 17.7693 184.525 18.0745 184.185 18.2864C183.805 18.524 183.364 18.6448 182.916 18.6338C182.467 18.6408 182.025 18.5257 181.637 18.3008C181.258 18.0773 180.951 17.7498 180.753 17.3571C180.534 16.9211 180.424 16.4381 180.434 15.9502C180.424 15.4635 180.533 14.9817 180.753 14.5473C180.952 14.1583 181.259 13.8348 181.637 13.6153C182.026 13.3935 182.468 13.2802 182.916 13.2873C183.365 13.2766 183.807 13.3955 184.19 13.6297M184.713 14.8564C184.553 14.5515 184.311 14.2977 184.014 14.124C183.718 13.9526 183.382 13.864 183.04 13.8674C182.694 13.8619 182.353 13.9469 182.051 14.1141C181.757 14.2819 181.517 14.5317 181.362 14.8331C181.187 15.1788 181.1 15.5629 181.11 15.9506C181.101 16.3379 181.188 16.7214 181.362 17.0673C181.516 17.3731 181.755 17.6276 182.051 17.7998C182.352 17.9701 182.694 18.057 183.04 18.0514C183.382 18.0548 183.718 17.9662 184.014 17.7948C184.311 17.6214 184.553 17.3675 184.713 17.0624C184.882 16.7194 184.97 16.3421 184.97 15.9596C184.97 15.5772 184.882 15.1994 184.713 14.8564Z" fill="#104226"/>
<path d="M150.088 24.8492C150.287 24.4602 150.594 24.1367 150.972 23.9172C151.361 23.6954 151.802 23.5821 152.25 23.5892C152.701 23.5772 153.145 23.6961 153.53 23.9316C153.869 24.1396 154.139 24.4443 154.305 24.8065V23.6665H154.97V28.858H154.305V27.7076C154.133 28.0698 153.861 28.3751 153.52 28.587C153.137 28.8255 152.692 28.9463 152.241 28.9343C151.796 28.9404 151.357 28.8253 150.972 28.6014C150.593 28.3778 150.286 28.0504 150.088 27.6577C149.878 27.219 149.77 26.7388 149.77 26.2526C149.77 25.7663 149.878 25.2862 150.088 24.8474M154.048 25.157C153.888 24.8521 153.646 24.5983 153.349 24.4246C153.053 24.2532 152.717 24.1646 152.375 24.168C152.029 24.1624 151.688 24.2475 151.386 24.4147C151.092 24.5825 150.852 24.8323 150.697 25.1337C150.522 25.4794 150.435 25.8635 150.445 26.2512C150.436 26.6385 150.523 27.0219 150.697 27.3679C150.851 27.6737 151.09 27.9281 151.386 28.1003C151.687 28.2707 152.029 28.3576 152.375 28.352C152.717 28.3554 153.053 28.2667 153.349 28.0954C153.646 27.922 153.888 27.6681 154.048 27.3629C154.217 27.02 154.305 26.6427 154.305 26.2602C154.305 25.8777 154.217 25.5 154.048 25.157Z" fill="#104226"/>
<path d="M164.031 22.2114V28.8575H163.365V25.7479H159.761V28.857H159.095V22.2114H159.761V25.197H163.365V22.2114H164.031Z" fill="#104226"/>
<path d="M170.23 26.5174H165.923C165.931 26.872 166.029 27.2187 166.209 27.5248C166.37 27.7945 166.603 28.0137 166.883 28.1575C167.165 28.301 167.478 28.3743 167.795 28.3714C168.182 28.384 168.563 28.2739 168.884 28.0569C169.174 27.8541 169.381 27.5536 169.468 27.2103H170.171C170.053 27.7057 169.765 28.1444 169.359 28.451C168.907 28.7834 168.355 28.9529 167.795 28.9318C167.336 28.9392 166.884 28.8261 166.483 28.6037C166.097 28.3862 165.782 28.063 165.575 27.6722C165.348 27.2367 165.236 26.7511 165.247 26.2603C165.236 25.7683 165.347 25.2813 165.57 24.8426C165.773 24.4503 166.087 24.1264 166.473 23.9115C166.878 23.6912 167.334 23.5796 167.795 23.5875C168.249 23.5775 168.697 23.6894 169.093 23.9115C169.453 24.1165 169.75 24.4177 169.949 24.7815C170.15 25.1538 170.253 25.5715 170.248 25.9948C170.248 26.223 170.241 26.3975 170.229 26.5183M169.34 24.9873C169.185 24.7209 168.955 24.5059 168.679 24.369C168.395 24.2288 168.082 24.1572 167.766 24.16C167.299 24.1497 166.846 24.3198 166.502 24.635C166.321 24.8092 166.177 25.0173 166.077 25.2475C165.978 25.4776 165.925 25.7251 165.921 25.9759H169.572C169.589 25.6311 169.509 25.2886 169.34 24.9873Z" fill="#104226"/>
<path d="M171.481 24.8492C171.68 24.4602 171.987 24.1367 172.365 23.9172C172.754 23.6954 173.196 23.5821 173.644 23.5892C174.094 23.5772 174.539 23.6962 174.923 23.9316C175.263 24.1396 175.533 24.4443 175.698 24.8065V23.6665H176.363V28.858H175.698V27.7076C175.526 28.0698 175.254 28.3751 174.914 28.587C174.53 28.8255 174.086 28.9463 173.634 28.9343C173.189 28.9404 172.751 28.8253 172.366 28.6014C171.987 28.3779 171.68 28.0504 171.482 27.6577C171.272 27.219 171.163 26.7388 171.163 26.2526C171.163 25.7663 171.272 25.2862 171.482 24.8474M175.441 25.157C175.282 24.8521 175.04 24.5983 174.743 24.4246C174.447 24.2532 174.11 24.1646 173.768 24.168C173.423 24.1624 173.082 24.2475 172.78 24.4147C172.485 24.5825 172.246 24.8323 172.091 25.1337C171.915 25.4794 171.828 25.8635 171.838 26.2512C171.83 26.6385 171.917 27.0219 172.091 27.3679C172.245 27.6736 172.484 27.9281 172.78 28.1003C173.081 28.2707 173.422 28.3575 173.768 28.352C174.11 28.3554 174.447 28.2667 174.743 28.0954C175.04 27.922 175.282 27.6681 175.441 27.3629C175.611 27.02 175.699 26.6427 175.699 26.2602C175.699 25.8777 175.611 25.5 175.441 25.157Z" fill="#104226"/>
<path d="M178.551 21.8208H177.885V28.8569H178.551V21.8208Z" fill="#104226"/>
<path d="M180.927 24.2267V27.4486C180.901 27.6822 180.965 27.9169 181.106 28.1047C181.288 28.2443 181.516 28.3087 181.743 28.2844H182.352V28.8551H181.638C181.26 28.8855 180.885 28.7679 180.592 28.5271C180.465 28.3796 180.37 28.2081 180.311 28.0227C180.252 27.8374 180.231 27.6421 180.25 27.4486V24.2267H179.527V23.6655H180.25V22.3623H180.924V23.6655H182.35V24.2267H180.927Z" fill="#104226"/>
<path d="M186.979 23.8173C187.298 23.9872 187.557 24.2511 187.721 24.5731C187.911 24.9586 188.004 25.385 187.991 25.8147V28.8569H187.335V25.8911C187.367 25.4216 187.215 24.9581 186.912 24.5983C186.762 24.4463 186.581 24.3277 186.382 24.2502C186.183 24.1728 185.97 24.1383 185.756 24.1489C185.534 24.1386 185.313 24.1756 185.106 24.2575C184.9 24.3394 184.713 24.4643 184.558 24.6239C184.235 25.015 184.075 25.516 184.111 26.0223V28.8555H183.445V21.8208H184.111V24.5498C184.275 24.2404 184.528 23.9882 184.839 23.8267C185.17 23.6597 185.536 23.5718 185.907 23.5701C186.278 23.5684 186.645 23.6529 186.978 23.8169" fill="#104226"/>
<path d="M189.458 22.544C189.411 22.4981 189.375 22.4432 189.35 22.3826C189.326 22.322 189.314 22.257 189.316 22.1917C189.314 22.1271 189.326 22.0628 189.35 22.003C189.375 21.9432 189.411 21.8892 189.458 21.8444C189.55 21.7559 189.673 21.7065 189.8 21.7065C189.928 21.7065 190.051 21.7559 190.143 21.8444C190.189 21.8892 190.226 21.9432 190.251 22.003C190.275 22.0628 190.287 22.1271 190.285 22.1917C190.287 22.257 190.275 22.322 190.25 22.3826C190.226 22.4432 190.189 22.4981 190.143 22.544C190.098 22.5891 190.045 22.6249 189.986 22.6493C189.927 22.6738 189.864 22.6863 189.8 22.6863C189.737 22.6863 189.674 22.6738 189.615 22.6493C189.556 22.6249 189.503 22.5891 189.458 22.544ZM190.132 28.8571H189.466V23.6656H190.132V28.8571Z" fill="#104226"/>
<path d="M196.32 26.5174H192.013C192.021 26.872 192.119 27.2187 192.298 27.5248C192.46 27.7945 192.693 28.0136 192.972 28.1575C193.255 28.301 193.568 28.3743 193.885 28.3714C194.272 28.384 194.653 28.2739 194.973 28.0569C195.264 27.8541 195.471 27.5536 195.558 27.2103H196.261C196.143 27.7058 195.855 28.1445 195.448 28.451C194.996 28.7834 194.445 28.9529 193.885 28.9318C193.426 28.9392 192.974 28.8261 192.572 28.6037C192.187 28.3862 191.872 28.063 191.665 27.6722C191.438 27.2367 191.325 26.7511 191.337 26.2603C191.326 25.7683 191.437 25.2813 191.66 24.8426C191.863 24.4503 192.177 24.1264 192.563 23.9115C192.968 23.6912 193.423 23.5796 193.885 23.5875C194.338 23.5775 194.787 23.6894 195.182 23.9115C195.543 24.1165 195.84 24.4177 196.039 24.7815C196.24 25.1538 196.343 25.5715 196.338 25.9948C196.338 26.223 196.331 26.3975 196.318 26.5183M195.43 24.9873C195.275 24.7209 195.045 24.5059 194.769 24.369C194.485 24.2287 194.172 24.1571 193.856 24.16C193.389 24.1497 192.936 24.3198 192.592 24.635C192.411 24.8092 192.267 25.0173 192.168 25.2475C192.068 25.4776 192.015 25.7251 192.011 25.9759H195.662C195.679 25.6311 195.598 25.2886 195.43 24.9873Z" fill="#104226"/>
<path d="M198.893 23.8361C199.231 23.6491 199.613 23.5572 200 23.57V24.2638H199.82C199.596 24.2395 199.369 24.2674 199.158 24.3454C198.946 24.4234 198.755 24.5493 198.601 24.7132C198.446 24.8772 198.331 25.0748 198.266 25.2905C198.2 25.5062 198.185 25.7342 198.223 25.9566V28.8568H197.557V23.6671H198.223V24.5892C198.361 24.2742 198.596 24.0113 198.893 23.8383" fill="#104226"/>
<path d="M153.962 32.5132V33.0645H152.119V39.1592H151.45V33.0636H149.596V32.5132H153.962Z" fill="#104226"/>
<path d="M155.974 38.9066C155.585 38.6887 155.265 38.3657 155.051 37.9746C154.828 37.5368 154.713 37.0527 154.714 36.5617C154.715 36.0707 154.832 35.5869 155.056 35.1499C155.273 34.7583 155.596 34.4354 155.988 34.218C156.393 33.9962 156.848 33.8832 157.31 33.8899C157.773 33.8837 158.229 33.9967 158.636 34.218C159.029 34.4338 159.352 34.7571 159.568 35.1499C159.801 35.5837 159.917 36.0705 159.906 36.5627C159.916 37.0535 159.798 37.5385 159.564 37.9697C159.345 38.3656 159.017 38.6907 158.62 38.9066C158.211 39.1275 157.753 39.2404 157.289 39.2346C156.829 39.2417 156.375 39.1287 155.972 38.9066M158.24 38.4208C158.538 38.2589 158.784 38.0147 158.948 37.7171C159.138 37.3629 159.231 36.9646 159.218 36.5627C159.231 36.161 159.139 35.7628 158.952 35.4074C158.79 35.1096 158.546 34.8651 158.248 34.7037C157.954 34.5505 157.628 34.4705 157.297 34.4705C156.966 34.4705 156.64 34.5505 156.347 34.7037C156.049 34.8641 155.806 35.109 155.647 35.4074C155.475 35.7682 155.386 36.1628 155.386 36.5625C155.386 36.9622 155.475 37.3568 155.647 37.7176C155.805 38.015 156.046 38.2596 156.342 38.4213C156.632 38.5772 156.956 38.6574 157.285 38.6545C157.617 38.6574 157.944 38.5772 158.237 38.4213" fill="#104226"/>
<path d="M168.79 34.4463C168.993 34.6718 169.149 34.9358 169.248 35.2226C169.346 35.5094 169.386 35.8131 169.365 36.1157V39.1583H168.709V36.1925C168.741 35.7255 168.595 35.2637 168.301 34.8997C168.158 34.7495 167.985 34.6318 167.793 34.5547C167.601 34.4775 167.395 34.4427 167.188 34.4526C166.97 34.4434 166.752 34.482 166.55 34.5658C166.348 34.6495 166.167 34.7764 166.02 34.9375C165.703 35.3357 165.547 35.8379 165.582 36.3453V39.1597H164.926V36.1939C164.958 35.7268 164.812 35.2649 164.517 34.9011C164.374 34.75 164.199 34.6317 164.005 34.5546C163.811 34.4774 163.602 34.4431 163.394 34.454C163.176 34.4445 162.958 34.4831 162.756 34.5668C162.554 34.6506 162.373 34.7776 162.226 34.9388C161.909 35.3369 161.753 35.8392 161.788 36.3467V39.161H161.122V33.9664H161.788V34.8606C161.942 34.5488 162.187 34.2915 162.492 34.1232C162.803 33.9534 163.154 33.8668 163.509 33.8716C163.926 33.8625 164.338 33.9747 164.693 34.1947C165.039 34.4191 165.299 34.7541 165.43 35.1451C165.553 34.7567 165.807 34.4232 166.149 34.2014C166.493 33.9812 166.895 33.8672 167.304 33.8734C167.578 33.8628 167.852 33.9082 168.107 34.0071C168.363 34.1059 168.596 34.256 168.792 34.4481" fill="#104226"/>
<path d="M171.795 38.9066C171.406 38.6887 171.086 38.3657 170.872 37.9746C170.64 37.5409 170.524 37.0545 170.535 36.5627C170.524 36.0701 170.641 35.583 170.876 35.1499C171.094 34.7583 171.417 34.4354 171.808 34.218C172.213 33.9962 172.669 33.8832 173.13 33.8899C173.594 33.8837 174.051 33.9966 174.457 34.218C174.85 34.4339 175.173 34.7572 175.389 35.1499C175.622 35.5838 175.738 36.0705 175.727 36.5627C175.737 37.0535 175.619 37.5385 175.384 37.9697C175.166 38.3656 174.838 38.6907 174.441 38.9066C174.032 39.1275 173.574 39.2404 173.109 39.2346C172.65 39.2417 172.196 39.1287 171.793 38.9066M174.061 38.4208C174.359 38.2589 174.605 38.0146 174.769 37.7171C174.959 37.3628 175.052 36.9646 175.038 36.5627C175.052 36.161 174.96 35.7628 174.772 35.4074C174.611 35.1096 174.367 34.8651 174.069 34.7037C173.775 34.5504 173.449 34.4704 173.118 34.4704C172.787 34.4704 172.461 34.5504 172.167 34.7037C171.87 34.8642 171.626 35.109 171.467 35.4074C171.295 35.7682 171.206 36.1628 171.206 36.5625C171.206 36.9622 171.295 37.3568 171.467 37.7176C171.625 38.015 171.867 38.2596 172.162 38.4213C172.452 38.5772 172.777 38.6574 173.106 38.6545C173.437 38.6574 173.764 38.5772 174.057 38.4213" fill="#104226"/>
<path d="M178.28 34.1373C178.619 33.9504 179.001 33.8585 179.387 33.8713V34.5651H179.208C178.984 34.5407 178.757 34.5685 178.545 34.6464C178.334 34.7244 178.143 34.8502 177.988 35.0142C177.834 35.1781 177.719 35.3757 177.653 35.5914C177.588 35.8071 177.573 36.035 177.61 36.2574V39.1576H176.944V33.9666H177.61V34.8886C177.749 34.5737 177.983 34.3108 178.281 34.1378" fill="#104226"/>
<path d="M181.723 34.1373C182.061 33.9504 182.444 33.8585 182.83 33.8713V34.5651H182.65C182.426 34.5407 182.199 34.5685 181.988 34.6464C181.776 34.7244 181.586 34.8502 181.431 35.0142C181.276 35.1781 181.161 35.3757 181.096 35.5914C181.03 35.8071 181.015 36.0351 181.053 36.2574V39.1576H180.387V33.9666H181.053V34.8886C181.191 34.5737 181.426 34.3108 181.723 34.1378" fill="#104226"/>
<path d="M184.783 38.9063C184.394 38.6885 184.074 38.3655 183.86 37.9744C183.637 37.5366 183.522 37.0525 183.522 36.5615C183.523 36.0705 183.64 35.5867 183.864 35.1497C184.082 34.7581 184.404 34.4352 184.796 34.2177C185.204 34.0023 185.659 33.8896 186.12 33.8896C186.582 33.8896 187.036 34.0023 187.445 34.2177C187.837 34.4335 188.161 34.7568 188.377 35.1497C188.599 35.5864 188.715 36.0698 188.715 36.5601C188.714 37.0504 188.596 37.5335 188.372 37.9694C188.153 38.3653 187.826 38.6904 187.428 38.9063C187.02 39.1272 186.561 39.2401 186.097 39.2344C185.637 39.2415 185.183 39.1284 184.781 38.9063M187.048 38.4206C187.347 38.2586 187.593 38.0144 187.756 37.7169C187.947 37.3626 188.04 36.9643 188.026 36.5625C188.039 36.1608 187.948 35.7626 187.76 35.4072C187.599 35.1093 187.354 34.8648 187.056 34.7035C186.763 34.5502 186.437 34.4701 186.105 34.4701C185.774 34.4701 185.448 34.5502 185.155 34.7035C184.857 34.8639 184.614 35.1087 184.455 35.4072C184.283 35.7679 184.194 36.1626 184.194 36.5622C184.194 36.9619 184.283 37.3566 184.455 37.7173C184.613 38.0147 184.854 38.2594 185.15 38.421C185.44 38.577 185.764 38.6572 186.093 38.6542C186.425 38.6572 186.752 38.577 187.045 38.421" fill="#104226"/>
<path d="M196.778 33.9663L195.151 39.1578H194.486L193.048 34.803L191.61 39.1578H190.936L189.31 33.9663H189.984L191.276 38.4824L192.732 33.9663H193.397L194.833 38.4923L196.117 33.9663H196.778Z" fill="#104226"/>
<path d="M9.07666 25.1151C9.07666 27.8169 9.87784 30.4581 11.3789 32.7045C12.8799 34.951 15.0134 36.7019 17.5095 37.7359C20.0057 38.7698 22.7524 39.0403 25.4023 38.5132C28.0521 37.9861 30.4862 36.6851 32.3967 34.7746C34.3072 32.8642 35.6082 30.4301 36.1353 27.7802C36.6624 25.1303 36.3919 22.3836 35.3579 19.8875C34.324 17.3913 32.5731 15.2579 30.3266 13.7568C28.0802 12.2558 25.439 11.4546 22.7372 11.4546C19.1142 11.4546 15.6396 12.8938 13.0777 15.4557C10.5159 18.0175 9.07666 21.4921 9.07666 25.1151Z" fill="#EB6625"/>
<path d="M0 31.554C1.81615 31.554 3.55792 30.8325 4.84213 29.5483C6.12634 28.2641 6.8478 26.5224 6.8478 24.7062C6.8478 22.8901 6.12634 21.1483 4.84213 19.8641C3.55792 18.5799 1.81615 17.8584 0 17.8584L0 31.554Z" fill="#104226"/>
</g>
</g>
<defs>
<clipPath id="clip0_333_1016">
<rect width="200" height="29.1091" fill="white" transform="translate(0 10.4453)"/>
</clipPath>
</defs>
</svg>
